<svg xmlns="http://www.w3.org/2000/svg" width="128.551" height="139.524" viewBox="0 0 128.551 139.524">
  <g id="Group_1954" data-name="Group 1954" transform="translate(2.591 0)">
    <ellipse id="Ellipse_381" data-name="Ellipse 381" cx="47.395" cy="47.395" rx="47.395" ry="47.395" transform="translate(0 49.459) rotate(-21.971)" fill="#e2f8fc"/>
    <ellipse id="Ellipse_380" data-name="Ellipse 380" cx="61.275" cy="61.275" rx="61.275" ry="61.275" transform="translate(0.409 13.974)" fill="none" stroke="#888cc4" stroke-linecap="round" stroke-linejoin="round" stroke-width="6"/>
    <path id="Path_931" data-name="Path 931" d="M161.306,264.423a12.06,12.06,0,0,0-22.717,0,61.7,61.7,0,0,1,22.717,0Z" transform="translate(-89.127 -256.416)" fill="#888cc4"/>
    <path id="Path_932" data-name="Path 932" d="M189.789,284.26l5.08-6.354a9,9,0,0,0-1.355-12.612h0A9,9,0,0,0,180.9,266.65l-4.77,5.967A70.124,70.124,0,0,1,189.789,284.26Z" transform="translate(-78.273 -254.42)" fill="#888cc4"/>
  </g>
</svg>
