<svg xmlns="http://www.w3.org/2000/svg" width="255.306" height="166.93" viewBox="0 0 255.306 166.93">
  <g id="Group_47" data-name="Group 47" transform="translate(-171.808 -222.403)">
    <g id="Group_43" data-name="Group 43" transform="translate(171.808 222.403)">
      <rect id="Rectangle_113" data-name="Rectangle 113" width="28.215" height="0.538" transform="translate(122.535 11.017)" fill="#ccc"/>
      <rect id="Rectangle_114" data-name="Rectangle 114" width="89.483" height="0.538" transform="translate(11.017 11.017)" fill="#ccc"/>
      <circle id="Ellipse_115" data-name="Ellipse 115" cx="11.017" cy="11.017" r="11.017" transform="translate(0 0.269)" fill="#888cc4"/>
      <circle id="Ellipse_116" data-name="Ellipse 116" cx="11.017" cy="11.017" r="11.017" transform="translate(50.25 0.269)" fill="#3f3d56"/>
      <path id="Path_748" data-name="Path 748" d="M846.428,206.2a11.286,11.286,0,1,1,11.286-11.286A11.286,11.286,0,0,1,846.428,206.2Zm0-22.035a10.749,10.749,0,1,0,10.749,10.749A10.749,10.749,0,0,0,846.428,184.165Z" transform="translate(-734.911 -183.628)" fill="#ccc"/>
      <path id="Path_749" data-name="Path 749" d="M1033.428,206.2a11.286,11.286,0,1,1,11.286-11.286A11.286,11.286,0,0,1,1033.428,206.2Zm0-22.035a10.749,10.749,0,1,0,10.749,10.749A10.749,10.749,0,0,0,1033.428,184.165Z" transform="translate(-871.661 -183.628)" fill="#ccc"/>
      <path id="Path_395" data-name="Path 395" d="M297.38,221.543a.892.892,0,0,1-.537-.179l-.009-.007-2.022-1.547a.9.9,0,0,1,1.094-1.426l1.31,1,3.095-4.038a.9.9,0,0,1,1.259-.166h0l-.019.027.02-.027a.9.9,0,0,1,.166,1.26l-3.64,4.747a.9.9,0,0,1-.715.35Z" transform="translate(-287.211 -206.972)" fill="#fff"/>
    </g>
    <g id="Group_24" data-name="Group 24" transform="translate(361.492 222.404)">
      <path id="Path_552" data-name="Path 552" d="M299.933,515.487a4.234,4.234,0,0,1,.592.33l18.827-8.036.672-4.96,7.523-.046-.445,11.376-24.85,6.573a4.457,4.457,0,0,1-.188.507,4.3,4.3,0,1,1-2.132-5.743Z" transform="translate(-293.877 -457.068)" fill="#feb8b8"/>
      <path id="Path_553" data-name="Path 553" d="M294.95,751.178H289.8l-2.448-19.85h7.6Z" transform="translate(-258.543 -589.681)" fill="#feb8b8"/>
      <path id="Path_554" data-name="Path 554" d="M290.979,775.11H300.9v6.247H284.73a6.249,6.249,0,0,1,6.249-6.249h0Z" transform="translate(-263.395 -615.083)" fill="#2f2e41"/>
      <path id="Path_555" data-name="Path 555" d="M249.182,747.848l-5.121.5-4.382-19.514,7.559-.743Z" transform="translate(-192.762 -587.805)" fill="#feb8b8"/>
      <path id="Path_556" data-name="Path 556" d="M241.6,772.384l9.876-.973.612,6.218-16.093,1.585a6.248,6.248,0,0,1,5.6-6.83Z" transform="translate(-194.101 -612.938)" fill="#2f2e41"/>
      <circle id="Ellipse_84" data-name="Ellipse 84" cx="10.31" cy="10.31" r="10.31" transform="translate(27.529 4.08)" fill="#feb8b8"/>
      <path id="Path_557" data-name="Path 557" d="M249.943,668.762a1.878,1.878,0,0,1-1.853-1.553c-2.662-14.784-11.371-63.134-11.579-64.474a.59.59,0,0,1-.007-.093v-3.605a.626.626,0,0,1,.117-.366l1.15-1.61a.621.621,0,0,1,.48-.262c6.559-.307,28.034-1.209,29.072.088h0c1.042,1.3.672,5.25.588,6.028l0,.081,9.649,61.706a1.894,1.894,0,0,1-1.56,2.155l-6.026.993a1.9,1.9,0,0,1-2.109-1.3c-1.864-5.956-8.114-25.991-10.28-33.744a.209.209,0,0,0-.412.06c.108,7.39.37,26.245.462,32.758l.01.7a1.9,1.9,0,0,1-1.718,1.9l-5.811.526A1.72,1.72,0,0,1,249.943,668.762Z" transform="translate(-219.834 -511.28)" fill="#2f2e41"/>
      <path id="Path_99" data-name="Path 99" d="M263.107,461.062a8.618,8.618,0,0,0-3.494,5.038,47.723,47.723,0,0,0-2.05,11.4l-.653,11.585L248.827,519.8c7.006,5.928,11.046,4.58,20.477-.268s10.508,1.616,10.508,1.616l1.886-26.134,2.694-28.558a12.667,12.667,0,0,0-2.041-1.962,20.846,20.846,0,0,0-17.816-3.778Z" transform="translate(-231.811 -432.308)" fill="#e6e6e6"/>
      <path id="Path_558" data-name="Path 558" d="M245.858,527.65a4.419,4.419,0,0,1,.63.294l18.617-9.319.309-5.048,7.679-.529.411,11.507-24.878,8.228a4.407,4.407,0,1,1-2.767-5.135Z" transform="translate(-217.188 -463.028)" fill="#feb8b8"/>
      <path id="Path_101" data-name="Path 101" d="M246.159,474.776c4.58,1.616,5.387,19.131,5.387,19.131-5.389-2.964-11.855,1.886-11.855,1.886s-1.347-4.581-2.964-10.508a10.3,10.3,0,0,1,2.155-9.7S241.578,473.159,246.159,474.776Z" transform="translate(-193.713 -440.5)" fill="#e6e6e6"/>
      <path id="Path_102" data-name="Path 102" d="M277.794,411c-1.285-1.028-3.037.84-3.037.84l-1.028-9.247s-6.422.769-10.534-.257-4.753,3.726-4.753,3.726a32.988,32.988,0,0,1-.129-5.781c.257-2.312,3.6-4.624,9.506-6.166s8.992,5.138,8.992,5.138C280.925,401.312,279.08,412.033,277.794,411Z" transform="translate(-230.713 -393.889)" fill="#2f2e41"/>
    </g>
    <rect id="Rectangle_110" data-name="Rectangle 110" width="219.829" height="0.653" transform="translate(207.284 388.68)" fill="#e6e6e6"/>
    <path id="Path_438" data-name="Path 438" d="M263.64,608.085a5.805,5.805,0,0,0,5.606-.988c1.964-1.648,2.579-4.363,3.08-6.878l1.482-7.437-3.1,2.136a22.6,22.6,0,0,0-6.057,5.346c-1.545,2.225-2.219,5.262-.978,7.669" transform="translate(-35.149 -230.935)" fill="#e6e6e6"/>
    <path id="Path_439" data-name="Path 439" d="M266.25,674.833a37.33,37.33,0,0,1-.518-8.6,13.525,13.525,0,0,1,2.608-7.092,11.8,11.8,0,0,1,3.027-2.743c.3-.191.581.289.28.479a11.216,11.216,0,0,0-4.438,5.353,17.969,17.969,0,0,0-.954,7.744c.1,1.578.314,3.146.529,4.712a.287.287,0,0,1-.194.341.279.279,0,0,1-.341-.194Z" transform="translate(-37.28 -288.161)" fill="#f2f2f2"/>
    <path id="Path_442" data-name="Path 442" d="M289.28,702.586A4.274,4.274,0,0,0,293,704.508c1.885-.089,3.457-1.405,4.871-2.653l4.184-3.694-2.769-.132a16.643,16.643,0,0,0-5.933.43,5.646,5.646,0,0,0-3.993,4.054" transform="translate(-57.499 -320.479)" fill="#e6e6e6"/>
    <path id="Path_443" data-name="Path 443" d="M262.8,727.316c1.878-3.326,4.06-7.022,7.955-8.2a8.876,8.876,0,0,1,3.346-.345c.355.03.267.578-.089.548a8.247,8.247,0,0,0-5.34,1.413,13.875,13.875,0,0,0-3.67,3.961c-.608.924-1.152,1.89-1.7,2.854C263.133,727.85,262.627,727.627,262.8,727.316Z" transform="translate(-34.935 -339.01)" fill="#f2f2f2"/>
    <g id="Group_46" data-name="Group 46" transform="translate(264.489 265.51)">
      <path id="Path_138" data-name="Path 138" d="M685.529,559.7H591.416a1.745,1.745,0,0,1-1.743-1.743V534.612a1.745,1.745,0,0,1,1.743-1.743h94.113a1.745,1.745,0,0,1,1.743,1.743v23.345A1.745,1.745,0,0,1,685.529,559.7Zm-94.113-26.134a1.047,1.047,0,0,0-1.046,1.046v23.346A1.047,1.047,0,0,0,591.416,559h94.113a1.047,1.047,0,0,0,1.046-1.046V534.612a1.047,1.047,0,0,0-1.046-1.046Z" transform="translate(-589.673 -532.869)" fill="#e6e6e6"/>
      <path id="Path_139" data-name="Path 139" d="M687.583,556.72a1.183,1.183,0,1,0,0,2.366h55.781a1.183,1.183,0,0,0,0-2.366Z" transform="translate(-654.821 -548.933)" fill="#e6e6e6"/>
      <path id="Path_140" data-name="Path 140" d="M687.583,578.466a1.183,1.183,0,1,0,0,2.366h24a1.183,1.183,0,1,0,0-2.366Z" transform="translate(-654.821 -563.58)" fill="#e6e6e6"/>
      <g id="Group_45" data-name="Group 45" transform="translate(9.334 5.366)">
        <circle id="Ellipse_18" data-name="Ellipse 18" cx="7.099" cy="7.099" r="7.099" fill="#e6e6e6"/>
        <path id="Path_395-2" data-name="Path 395" d="M298.056,223.06a1.1,1.1,0,0,1-.662-.22l-.012-.009-2.492-1.906a1.108,1.108,0,1,1,1.348-1.759l1.614,1.237,3.814-4.976a1.107,1.107,0,0,1,1.552-.205h0l-.024.033.024-.033a1.108,1.108,0,0,1,.2,1.552l-4.486,5.853a1.108,1.108,0,0,1-.881.432Z" transform="translate(-292.072 -212.015)" fill="#888cc4"/>
      </g>
    </g>
  </g>
</svg>
